#!OML:ASF H:\LiuWeirdWalks\Patient Classification 1\Patient 1\Session 1\male.ASF
:FULLY-SPECIFIED
:DEGREES
1384
root 2.40226 17.9374 29.0835 5.56696 8.91697 7.92566
lowerback 11.0424 -0.181622 -3.00717
upperback 0.125854 -0.20879 6.42497
thorax -6.0545 0.097302 8.63646
lowerneck -21.8399 0.138739 5.88239
upperneck 14.6723 1.66135 -16.6732
head 8.40773 -0.627154 -6.51253
rclavicle 5.96354e-015 3.18055e-015
rhumerus -23.4549 -24.4412 -17.9483
rradius 34.9349
rwrist -9.08466
rhand -22.4296 -9.0044
rfingers 7.12502
rthumb 3.99394 -38.9467
lclavicle 5.96354e-015 3.18055e-015
lhumerus -21.1607 15.9757 26.1687
lradius 47.7406
lwrist 80.5391
lhand -46.2633 -33.6829
lfingers 7.12502
lthumb -18.9989 -4.59077
rfemur -28.2181 -9.24206 6.87673
rtibia 34.9147
rfoot -0.908905 -19.0202
rtoes -3.95566
lfemur 4.09078 -3.89038 -20.3086
ltibia 29.5401
lfoot 3.42142 9.12585
ltoes -21.8807
1385
root 2.35619 17.9535 29.1718 5.61657 9.01149 8.20235
lowerback 11.0122 -0.205238 -3.0095
upperback 0.095277 -0.237751 6.44966
thorax -6.06512 0.0848184 8.67001
lowerneck -21.8203 0.157454 5.92867
upperneck 14.7246 1.70876 -16.8172
head 8.43119 -0.617384 -6.5688
rclavicle 1.43125e-014 -9.54166e-015
rhumerus -23.4162 -24.2332 -18.2246
rradius 34.8815
rwrist -9.29927
rhand -22.4481 -9.00836
rfingers 7.12502
rthumb 3.97606 -38.951
lclavicle 1.43125e-014 -9.54166e-015
lhumerus -21.1364 15.8896 26.1348
lradius 47.7078
lwrist 80.3135
lhand -46.304 -33.4033
lfingers 7.12502
lthumb -19.0381 -4.31503
rfemur -27.9841 -9.22407 6.73029
rtibia 35.128
rfoot -1.30547 -19.1783
rtoes -4.08316
lfemur 3.93095 -4.11168 -20.4552
ltibia 29.9798
lfoot 4.20533 8.78799
ltoes -21.5978
1386
root 2.31266 17.9709 29.2577 5.67971 9.07417 8.45014
lowerback 10.9629 -0.228895 -3.00045
upperback 0.0828359 -0.264979 6.49062
thorax -6.04592 0.0715836 8.71338
lowerneck -21.8584 0.189264 5.97943
upperneck 14.7535 1.77233 -16.9786
head 8.45991 -0.603112 -6.63075
rclavicle -2.10712e-014 -8.26944e-014
rhumerus -23.3117 -24.2528 -18.4844
rradius 34.8079
rwrist -9.29556
rhand -22.4036 -9.03796
rfingers 7.12502
rthumb 4.01908 -38.9798
lclavicle -2.10712e-014 -8.26944e-014
lhumerus -21.1238 15.9017 26.0835
lradius 47.6975
lwrist 80.0243
lhand -46.355 -33.0758
lfingers 7.12502
lthumb -19.0872 -3.99235
rfemur -27.7613 -9.22184 6.61721
rtibia 35.2795
rfoot -1.67392 -19.2958
rtoes -4.19264
lfemur 3.75643 -4.32656 -20.586
ltibia 30.3979
lfoot 5.00805 8.47283
ltoes -21.2001
1387
root 2.27101 17.9897 29.341 5.74527 9.10213 8.62983
lowerback 10.8962 -0.242851 -2.9235
upperback 0.0778077 -0.269943 6.54663
thorax -6.01303 0.0668826 8.72887
lowerneck -21.9 0.213612 6.01949
upperneck 14.7542 1.82562 -17.1423
head 8.47874 -0.593911 -6.69193
rclavicle 4.33351e-014 -1.90833e-014
rhumerus -23.2275 -24.8435 -18.6449
rradius 34.7311
rwrist -8.72414
rhand -22.2139 -8.97069
rfingers 7.12502
rthumb 4.20223 -38.909
lclavicle 4.33351e-014 -1.90833e-014
lhumerus -21.0883 15.9688 26.0265
lradius 47.6971
lwrist 79.6375
lhand -46.4047 -32.6378
lfingers 7.12502
lthumb -19.1349 -3.5591
rfemur -27.5435 -9.21027 6.58111
rtibia 35.3622
rfoot -2.00426 -19.3861
rtoes -4.30075
lfemur 3.56939 -4.51883 -20.6527
ltibia 30.7971
lfoot 5.82236 8.17335
ltoes -20.7063
1388
root 2.23138 18.0094 29.4227 5.80743 9.10642 8.75585
lowerback 10.8223 -0.259209 -2.81334
upperback 0.0855686 -0.273044 6.62646
thorax -5.96284 0.0616178 8.75026
lowerneck -21.9673 0.26021 6.08642
upperneck 14.7308 1.90653 -17.35
head 8.49923 -0.574824 -6.77006
rclavicle -1.90833e-014 -5.08889e-014
rhumerus -23.083 -25.5389 -18.7888
rradius 34.6393
rwrist -8.0374
rhand -22.0129 -8.9014
rfingers 7.12502
rthumb 4.39633 -38.8358
lclavicle -1.90833e-014 -5.08889e-014
lhumerus -21.0756 16.1229 25.9525
lradius 47.7141
lwrist 79.2104
lhand -46.4209 -32.196
lfingers 7.12502
lthumb -19.1505 -3.11885
rfemur -27.3143 -9.20767 6.60297
rtibia 35.3762
rfoot -2.30193 -19.4378
rtoes -4.3892
lfemur 3.38544 -4.69617 -20.6719
ltibia 31.1713
lfoot 6.65268 7.907
ltoes -20.0681
